<svg width="263" height="120" viewBox="0 0 263 120" fill="none" xmlns="http://www.w3.org/2000/svg">
<path fill-rule="evenodd" clip-rule="evenodd" d="M106.836 120C139.973 120 166.836 93.1371 166.836 60C166.836 26.8629 139.973 0 106.836 0C97.586 0 88.8246 2.09334 81 5.83213C87.0428 3.67483 93.5524 2.5 100.336 2.5C132.093 2.5 157.836 28.2436 157.836 60C157.836 91.7564 132.093 117.5 100.336 117.5C93.5524 117.5 87.0428 116.325 81 114.168C88.8246 117.907 97.586 120 106.836 120Z" fill="white"/>
<path fill-rule="evenodd" clip-rule="evenodd" d="M106.836 120C139.973 120 166.836 93.1371 166.836 60C166.836 26.8629 139.973 0 106.836 0C97.586 0 88.8246 2.09334 81 5.83213C87.0428 3.67483 93.5524 2.5 100.336 2.5C132.093 2.5 157.836 28.2436 157.836 60C157.836 91.7564 132.093 117.5 100.336 117.5C93.5524 117.5 87.0428 116.325 81 114.168C88.8246 117.907 97.586 120 106.836 120Z" fill="#D3D3D3"/>
<path d="M12.44 74.4C10.2533 74.4 8.16 74.0933 6.16 73.48C4.16 72.84 2.57333 72.0267 1.4 71.04L3.2 67C4.32 67.88 5.70667 68.6133 7.36 69.2C9.01333 69.7867 10.7067 70.08 12.44 70.08C13.9067 70.08 15.0933 69.92 16 69.6C16.9067 69.28 17.5733 68.8533 18 68.32C18.4267 67.76 18.64 67.1333 18.64 66.44C18.64 65.5867 18.3333 64.9067 17.72 64.4C17.1067 63.8667 16.3067 63.4533 15.32 63.16C14.36 62.84 13.28 62.5467 12.08 62.28C10.9067 62.0133 9.72 61.7067 8.52 61.36C7.34667 60.9867 6.26667 60.52 5.28 59.96C4.32 59.3733 3.53333 58.6 2.92 57.64C2.30667 56.68 2 55.4533 2 53.96C2 52.44 2.4 51.0533 3.2 49.8C4.02667 48.52 5.26667 47.5067 6.92 46.76C8.6 45.9867 10.72 45.6 13.28 45.6C14.96 45.6 16.6267 45.8133 18.28 46.24C19.9333 46.6667 21.3733 47.28 22.6 48.08L20.96 52.12C19.7067 51.3733 18.4133 50.8267 17.08 50.48C15.7467 50.1067 14.4667 49.92 13.24 49.92C11.8 49.92 10.6267 50.0933 9.72 50.44C8.84 50.7867 8.18667 51.24 7.76 51.8C7.36 52.36 7.16 53 7.16 53.72C7.16 54.5733 7.45333 55.2667 8.04 55.8C8.65333 56.3067 9.44 56.7067 10.4 57C11.3867 57.2933 12.48 57.5867 13.68 57.88C14.88 58.1467 16.0667 58.4533 17.24 58.8C18.44 59.1467 19.52 59.6 20.48 60.16C21.4667 60.72 22.2533 61.48 22.84 62.44C23.4533 63.4 23.76 64.6133 23.76 66.08C23.76 67.5733 23.3467 68.96 22.52 70.24C21.72 71.4933 20.48 72.5067 18.8 73.28C17.12 74.0267 15 74.4 12.44 74.4ZM38.0363 74.28C35.8496 74.28 33.9029 73.8133 32.1963 72.88C30.4896 71.92 29.1429 70.6133 28.1563 68.96C27.1696 67.3067 26.6763 65.4267 26.6763 63.32C26.6763 61.1867 27.1696 59.3067 28.1563 57.68C29.1429 56.0267 30.4896 54.7333 32.1963 53.8C33.9029 52.8667 35.8496 52.4 38.0363 52.4C40.2496 52.4 42.2096 52.8667 43.9163 53.8C45.6496 54.7333 46.9963 56.0133 47.9563 57.64C48.9429 59.2667 49.4363 61.16 49.4363 63.32C49.4363 65.4267 48.9429 67.3067 47.9563 68.96C46.9963 70.6133 45.6496 71.92 43.9163 72.88C42.2096 73.8133 40.2496 74.28 38.0363 74.28ZM38.0363 70C39.2629 70 40.3563 69.7333 41.3163 69.2C42.2763 68.6667 43.0229 67.8933 43.5563 66.88C44.1163 65.8667 44.3963 64.68 44.3963 63.32C44.3963 61.9333 44.1163 60.7467 43.5563 59.76C43.0229 58.7467 42.2763 57.9733 41.3163 57.44C40.3563 56.9067 39.2763 56.64 38.0763 56.64C36.8496 56.64 35.7563 56.9067 34.7963 57.44C33.8629 57.9733 33.1163 58.7467 32.5563 59.76C31.9963 60.7467 31.7163 61.9333 31.7163 63.32C31.7163 64.68 31.9963 65.8667 32.5563 66.88C33.1163 67.8933 33.8629 68.6667 34.7963 69.2C35.7563 69.7333 36.8363 70 38.0363 70ZM63.2575 74.28C61.4442 74.28 59.8442 73.9467 58.4575 73.28C57.0708 72.5867 55.9908 71.5467 55.2175 70.16C54.4442 68.7467 54.0575 66.9733 54.0575 64.84V52.64H59.0575V64.16C59.0575 66.08 59.4842 67.52 60.3375 68.48C61.2175 69.4133 62.4575 69.88 64.0575 69.88C65.2308 69.88 66.2442 69.64 67.0975 69.16C67.9775 68.68 68.6575 67.96 69.1375 67C69.6442 66.04 69.8975 64.8533 69.8975 63.44V52.64H74.8975V74H70.1375V68.24L70.9775 70C70.2575 71.3867 69.2042 72.4533 67.8175 73.2C66.4308 73.92 64.9108 74.28 63.2575 74.28ZM93.5641 52.4C95.2707 52.4 96.7907 52.7333 98.1241 53.4C99.4841 54.0667 100.551 55.0933 101.324 56.48C102.097 57.84 102.484 59.6 102.484 61.76V74H97.4841V62.4C97.4841 60.5067 97.0307 59.0933 96.1241 58.16C95.2441 57.2267 94.0041 56.76 92.4041 56.76C91.2307 56.76 90.1907 57 89.2841 57.48C88.3774 57.96 87.6707 58.68 87.1641 59.64C86.6841 60.5733 86.4441 61.76 86.4441 63.2V74H81.4441V52.64H86.2041V58.4L85.3641 56.64C86.1107 55.28 87.1907 54.24 88.6041 53.52C90.0441 52.7733 91.6974 52.4 93.5641 52.4ZM117.906 74.28C115.853 74.28 113.999 73.8267 112.346 72.92C110.719 71.9867 109.439 70.7067 108.506 69.08C107.573 67.4533 107.106 65.5333 107.106 63.32C107.106 61.1067 107.573 59.1867 108.506 57.56C109.439 55.9333 110.719 54.6667 112.346 53.76C113.999 52.8533 115.853 52.4 117.906 52.4C119.693 52.4 121.293 52.8 122.706 53.6C124.119 54.3733 125.239 55.56 126.066 57.16C126.893 58.76 127.306 60.8133 127.306 63.32C127.306 65.8 126.906 67.8533 126.106 69.48C125.306 71.08 124.199 72.28 122.786 73.08C121.373 73.88 119.746 74.28 117.906 74.28ZM118.506 70C119.706 70 120.773 69.7333 121.706 69.2C122.666 68.6667 123.426 67.8933 123.986 66.88C124.573 65.8667 124.866 64.68 124.866 63.32C124.866 61.9333 124.573 60.7467 123.986 59.76C123.426 58.7467 122.666 57.9733 121.706 57.44C120.773 56.9067 119.706 56.64 118.506 56.64C117.306 56.64 116.226 56.9067 115.266 57.44C114.333 57.9733 113.573 58.7467 112.986 59.76C112.426 60.7467 112.146 61.9333 112.146 63.32C112.146 64.68 112.426 65.8667 112.986 66.88C113.573 67.8933 114.333 68.6667 115.266 69.2C116.226 69.7333 117.306 70 118.506 70ZM124.986 74V68.96L125.186 63.28L124.786 57.6V44.32H129.746V74H124.986ZM152.302 74L148.622 46H153.782L157.062 71.28H154.382L168.022 46H172.862L176.102 71.28H173.582L187.102 46H192.262L177.422 74H171.862L168.742 51.2H170.302L157.862 74H152.302ZM198.416 74.28C196.683 74.28 195.096 73.9067 193.656 73.16C192.243 72.4133 191.11 71.3467 190.256 69.96C189.43 68.5467 189.016 66.8533 189.016 64.88C189.016 63.0667 189.31 61.4 189.896 59.88C190.51 58.36 191.363 57.04 192.456 55.92C193.55 54.8 194.816 53.9333 196.256 53.32C197.723 52.7067 199.323 52.4 201.056 52.4C202.843 52.4 204.376 52.72 205.656 53.36C206.963 54 207.95 54.9733 208.616 56.28C209.283 57.56 209.59 59.16 209.536 61.08C209.483 63.72 209.003 66.04 208.096 68.04C207.19 70.0133 205.923 71.5467 204.296 72.64C202.67 73.7333 200.71 74.28 198.416 74.28ZM199.696 70C201.136 70 202.403 69.6667 203.496 69C204.59 68.3067 205.456 67.36 206.096 66.16C206.736 64.96 207.056 63.5733 207.056 62C207.056 60.3467 206.563 59.04 205.576 58.08C204.59 57.12 203.203 56.64 201.416 56.64C200.003 56.64 198.736 56.9867 197.616 57.68C196.523 58.3467 195.656 59.28 195.016 60.48C194.376 61.68 194.056 63.0667 194.056 64.64C194.056 66.2933 194.55 67.6 195.536 68.56C196.523 69.52 197.91 70 199.696 70ZM204.936 74L205.896 69.12L207.256 63.44L207.936 57.72L208.936 52.64H213.936L209.696 74H204.936ZM221.958 74L217.038 52.64H221.958L226.198 71.48H223.678L235.478 52.64H240.518L227.118 74H221.958ZM249.497 74.28C247.364 74.28 245.511 73.8933 243.937 73.12C242.364 72.32 241.137 71.2267 240.257 69.84C239.404 68.4267 238.977 66.7733 238.977 64.88C238.977 62.4533 239.511 60.3067 240.577 58.44C241.644 56.5733 243.097 55.1067 244.937 54.04C246.804 52.9467 248.924 52.4 251.297 52.4C253.297 52.4 255.031 52.7733 256.497 53.52C257.964 54.2667 259.097 55.3467 259.897 56.76C260.724 58.1467 261.137 59.8133 261.137 61.76C261.137 62.2667 261.111 62.7867 261.057 63.32C261.004 63.8533 260.924 64.3467 260.817 64.8H242.697L243.257 61.48H258.457L256.417 62.6C256.631 61.24 256.537 60.1067 256.137 59.2C255.737 58.2933 255.097 57.6 254.217 57.12C253.337 56.64 252.284 56.4 251.057 56.4C249.591 56.4 248.311 56.7467 247.217 57.44C246.151 58.1067 245.324 59.0667 244.737 60.32C244.151 61.5467 243.857 62.9867 243.857 64.64C243.857 66.3733 244.351 67.7067 245.337 68.64C246.351 69.5733 247.911 70.04 250.017 70.04C251.217 70.04 252.364 69.8533 253.457 69.48C254.551 69.08 255.457 68.5333 256.177 67.84L258.257 71.32C257.137 72.3067 255.804 73.0533 254.257 73.56C252.737 74.04 251.151 74.28 249.497 74.28Z" fill="black"/>
<path fill-rule="evenodd" clip-rule="evenodd" d="M98.931 115C129.307 115 153.931 90.3757 153.931 60C153.931 29.6243 129.307 5 98.931 5C92.2787 5 85.9023 6.181 80 8.34476C83.0595 7.78981 86.2114 7.5 89.431 7.5C118.426 7.5 141.931 31.0051 141.931 60C141.931 88.9949 118.426 112.5 89.431 112.5C86.2114 112.5 83.0595 112.21 80 111.655C85.9023 113.819 92.2787 115 98.931 115Z" fill="white"/>
<path fill-rule="evenodd" clip-rule="evenodd" d="M98.931 115C129.307 115 153.931 90.3757 153.931 60C153.931 29.6243 129.307 5 98.931 5C92.2787 5 85.9023 6.181 80 8.34476C83.0595 7.78981 86.2114 7.5 89.431 7.5C118.426 7.5 141.931 31.0051 141.931 60C141.931 88.9949 118.426 112.5 89.431 112.5C86.2114 112.5 83.0595 112.21 80 111.655C85.9023 113.819 92.2787 115 98.931 115Z" fill="#8A5EFF"/>
</svg>
